<svg width="64" height="64" viewBox="0 0 64 64" fill="none" xmlns="http://www.w3.org/2000/svg">
<path d="M15.8079 53.8129C11.9655 53.8129 8.70357 52.4676 6.02214 49.7771C3.34071 47.0867 2 43.8202 2 39.9779C2 36.4831 3.17214 33.4088 5.51643 30.755C7.86071 28.1012 10.7838 26.6076 14.2857 26.2743C15.0186 21.8386 17.0598 18.1838 20.4093 15.31C23.7593 12.4367 27.6614 11 32.1157 11C37.101 11 41.3169 12.8031 44.7636 16.4093C48.2107 20.0155 49.9343 24.3495 49.9343 29.4114V32.115H50.8129C53.9305 32.0017 56.5743 32.9852 58.7443 35.0657C60.9148 37.1462 62 39.7743 62 42.95C62 45.9243 60.9331 48.4783 58.7993 50.6121C56.6655 52.746 54.1114 53.8129 51.1371 53.8129H15.8079ZM15.8079 50.5707H51.1371C53.2433 50.5707 55.04 49.8271 56.5271 48.34C58.0143 46.8529 58.7579 45.0562 58.7579 42.95C58.7579 40.8624 58.0143 39.075 56.5271 37.5879C55.04 36.1007 53.2433 35.3571 51.1371 35.3571H46.6921V29.4114C46.6921 25.1881 45.2581 21.604 42.39 18.6593C39.5219 15.714 36.02 14.2414 31.8843 14.2414C27.7671 14.2414 24.2626 15.714 21.3707 18.6593C18.4788 21.604 17.0329 25.1881 17.0329 29.4114H15.6486C12.751 29.4114 10.2921 30.4336 8.27214 32.4779C6.25214 34.5217 5.24214 37.0307 5.24214 40.005C5.24214 42.9317 6.27143 45.4243 8.33 47.4829C10.3886 49.5414 12.8812 50.5707 15.8079 50.5707Z" fill="#2D2D2D"/>
</svg>
