<svg width="64" height="65" viewBox="0 0 64 65" fill="none" xmlns="http://www.w3.org/2000/svg">
<g clip-path="url(#clip0_4636_178)">
<path opacity="0.947" fill-rule="evenodd" clip-rule="evenodd" d="M30.8122 0.4375C32.6039 0.4375 34.3956 0.4375 36.1872 0.4375C43.8629 1.30481 49.842 4.92981 54.1247 11.3125C56.6547 15.7413 57.5715 20.4913 56.8747 25.5625C56.4417 30.9891 54.6084 35.8641 51.3747 40.1875C46.1945 46.3449 39.7154 48.4074 31.9372 46.375C30.7644 45.9035 29.7019 45.2576 28.7497 44.4375C28.0192 47.2346 27.2692 50.0262 26.4997 52.8125C25.1514 56.6364 23.193 60.0947 20.6247 63.1875C20.1954 63.6806 19.7162 64.0973 19.1872 64.4375C18.8122 64.4375 18.4372 64.4375 18.0622 64.4375C17.1506 64.0871 16.6297 63.4204 16.4997 62.4375C16.1374 57.5641 16.429 52.7308 17.3747 47.9375C18.81 42.0297 20.2059 36.1131 21.5622 30.1875C20.4666 27.1174 20.2791 23.9924 20.9997 20.8125C21.6729 18.1412 23.1937 16.1204 25.5622 14.75C28.1322 13.636 30.549 13.886 32.8122 15.5C34.165 16.9733 34.8317 18.7232 34.8122 20.75C34.696 22.1229 34.4669 23.477 34.1247 24.8125C33.3331 27.5209 32.5414 30.2291 31.7497 32.9375C31.1196 36.3499 32.5362 38.2249 35.9997 38.5625C37.6534 38.5372 39.0909 37.9748 40.3122 36.875C42.7402 34.4158 44.3027 31.4783 44.9997 28.0625C45.6674 25.1336 45.8757 22.1753 45.6247 19.1875C44.7175 13.9884 41.6967 10.7592 36.5622 9.5C31.3999 8.37386 26.6499 9.29052 22.3122 12.25C17.9471 15.9197 16.0096 20.6073 16.4997 26.3125C16.7919 28.1882 17.5835 29.8132 18.8747 31.1875C19.147 31.672 19.2927 32.1929 19.3122 32.75C19.0886 34.1236 18.7761 35.4777 18.3747 36.8125C17.8321 38.2401 16.8114 38.8026 15.3122 38.5C11.5083 36.7935 8.98742 33.9394 7.74974 29.9375C5.83311 22.3127 7.33311 15.4377 12.2497 9.3125C17.2392 3.89099 23.4267 0.93265 30.8122 0.4375ZM31.9372 3.0625C38.0696 2.72482 43.4864 4.49565 48.1872 8.375C52.9517 12.8756 54.9726 18.3964 54.2497 24.9375C53.9034 30.2505 52.0701 34.9589 48.7497 39.0625C45.1365 43.1283 40.6156 44.9408 35.1872 44.5C33.0031 44.1269 31.149 43.1478 29.6247 41.5625C28.9266 40.4581 28.2599 39.3331 27.6247 38.1875C26.3514 43.0719 25.0181 47.9469 23.6247 52.8125C22.476 55.6534 20.976 58.2784 19.1247 60.6875C18.9296 57.2586 19.0964 53.842 19.6247 50.4375C21.1186 43.8432 22.6602 37.2599 24.2497 30.6875C24.2785 29.646 24.0701 28.646 23.6247 27.6875C22.7837 24.5387 23.2005 21.5804 24.8747 18.8125C26.3339 16.9014 28.188 16.3389 30.4372 17.125C31.634 17.9985 32.1756 19.186 32.0622 20.6875C32.0464 21.3173 31.9839 21.9423 31.8747 22.5625C31.1847 25.3828 30.393 28.1744 29.4997 30.9375C28.9385 32.6135 28.7717 34.3219 28.9997 36.0625C29.836 38.9404 31.7319 40.6279 34.6872 41.125C37.2879 41.4749 39.6212 40.8499 41.6872 39.25C44.7776 36.3846 46.7567 32.8637 47.6247 28.6875C48.379 25.3445 48.5874 21.9695 48.2497 18.5625C46.9985 12.0195 43.1026 8.08197 36.5622 6.75C31.704 5.85194 27.079 6.5186 22.6872 8.75C18.2605 11.4719 15.4064 15.3678 14.1247 20.4375C13.5449 23.0224 13.5449 25.6056 14.1247 28.1875C14.5597 29.8498 15.3514 31.3081 16.4997 32.5625C16.4307 33.6726 16.2016 34.756 15.8122 35.8125C12.7239 34.0585 10.7864 31.4335 9.99974 27.9375C8.81172 20.585 10.8742 14.3141 16.1872 9.125C20.7472 5.32463 25.9972 3.30379 31.9372 3.0625Z" fill="#2D2D2D"/>
</g>
<defs>
<clipPath id="clip0_4636_178">
<rect width="64" height="64" fill="white" transform="translate(0 0.5)"/>
</clipPath>
</defs>
</svg>
