<svg width="64" height="64" viewBox="0 0 64 64" fill="none" xmlns="http://www.w3.org/2000/svg">
<path opacity="0.949" fill-rule="evenodd" clip-rule="evenodd" d="M25.0625 4.18724C25.4972 4.14777 25.914 4.21027 26.3125 4.37474C28.1679 6.5007 30.0429 8.60488 31.9375 10.6872C33.8321 8.60488 35.7071 6.5007 37.5625 4.37474C38.992 3.92944 39.6377 4.45028 39.5 5.93724C37.5912 8.32563 35.612 10.659 33.5625 12.9372C42.75 27.7289 51.9375 42.5206 61.125 57.3122C61.6664 57.9925 61.6872 58.68 61.1875 59.3747C61.0209 59.4581 60.8541 59.5414 60.6875 59.6247C41.5209 59.7081 22.3541 59.7081 3.1875 59.6247C2.63912 59.4257 2.34746 59.03 2.3125 58.4372C2.38741 58.037 2.53325 57.662 2.75 57.3122C11.9375 42.5206 21.125 27.7289 30.3125 12.9372C28.3516 10.7057 26.4141 8.45567 24.5 6.18724C24.1242 5.34617 24.3117 4.6795 25.0625 4.18724ZM31.8125 15.4372C32.078 15.5036 32.2655 15.6704 32.375 15.9372C34.1459 18.8122 35.9166 21.6872 37.6875 24.5622C33.8541 24.7289 30.0209 24.7289 26.1875 24.5622C28.0953 21.538 29.9703 18.4964 31.8125 15.4372ZM24.4375 27.3122C29.4376 27.2914 34.4376 27.3122 39.4375 27.3747C40.8229 29.6459 42.2396 31.8959 43.6875 34.1247C42.3131 34.1872 40.9381 34.2081 39.5625 34.1872C39.5832 33.5609 39.5624 32.9359 39.5 32.3122C39.0904 31.6111 38.4862 31.382 37.6875 31.6247C37.4584 31.7706 37.2709 31.9581 37.125 32.1872C36.9661 32.844 36.9036 33.5106 36.9375 34.1872C35.6875 34.1872 34.4375 34.1872 33.1875 34.1872C33.2082 33.5609 33.1874 32.9359 33.125 32.3122C32.6565 31.557 32.0106 31.3695 31.1875 31.7497C30.9939 31.9015 30.8481 32.089 30.75 32.3122C30.6876 32.9359 30.6668 33.5609 30.6875 34.1872C29.4375 34.1872 28.1875 34.1872 26.9375 34.1872C26.9714 33.5106 26.9089 32.844 26.75 32.1872C26.3377 31.5972 25.7753 31.4097 25.0625 31.6247C24.8392 31.7229 24.6517 31.8686 24.5 32.0622C24.3245 32.7552 24.262 33.4635 24.3125 34.1872C22.9766 34.2287 21.6432 34.1871 20.3125 34.0622C21.6889 31.8087 23.0639 29.5587 24.4375 27.3122ZM18.5625 36.8122C27.4792 36.7914 36.3959 36.8122 45.3125 36.8747C49.4895 43.6457 53.6979 50.3957 57.9375 57.1247C56.188 57.1872 54.438 57.2081 52.6875 57.1872C52.7082 56.5609 52.6874 55.9359 52.625 55.3122C52.2071 54.4687 51.5612 54.2396 50.6875 54.6247C50.5416 54.7706 50.3959 54.9164 50.25 55.0622C50.0811 55.7587 50.0186 56.467 50.0625 57.1872C49.1041 57.1872 48.1459 57.1872 47.1875 57.1872C47.2082 56.5609 47.1874 55.9359 47.125 55.3122C46.7071 54.4687 46.0612 54.2396 45.1875 54.6247C45.0416 54.7706 44.8959 54.9164 44.75 55.0622C44.5811 55.7587 44.5186 56.467 44.5625 57.1872C43.4344 57.2287 42.3094 57.187 41.1875 57.0622C38.4681 51.8317 35.7806 46.5817 33.125 41.3122C32.3334 40.4789 31.5416 40.4789 30.75 41.3122C28.0944 46.5817 25.4069 51.8317 22.6875 57.0622C21.5656 57.187 20.4406 57.2287 19.3125 57.1872C19.3564 56.467 19.2939 55.7587 19.125 55.0622C18.5326 54.3645 17.8451 54.2604 17.0625 54.7497C16.9425 54.9271 16.8384 55.1146 16.75 55.3122C16.6876 55.9359 16.6668 56.5609 16.6875 57.1872C15.7291 57.1872 14.7709 57.1872 13.8125 57.1872C13.8564 56.467 13.7939 55.7587 13.625 55.0622C13.0326 54.3645 12.3451 54.2604 11.5625 54.7497C11.4425 54.9271 11.3383 55.1146 11.25 55.3122C11.1876 55.9359 11.1668 56.5609 11.1875 57.1872C9.437 57.2081 7.687 57.1872 5.9375 57.1247C10.1942 50.3819 14.4025 43.611 18.5625 36.8122ZM31.8125 44.9372C32.097 45.1661 32.3261 45.4577 32.5 45.8122C34.4215 49.5929 36.359 53.3637 38.3125 57.1247C34.0625 57.2081 29.8125 57.2081 25.5625 57.1247C27.665 53.0654 29.7484 49.0029 31.8125 44.9372Z" fill="#2D2D2D"/>
<path opacity="0.938" fill-rule="evenodd" clip-rule="evenodd" d="M49.0626 4.18754C50.6649 3.99509 52.1233 4.34925 53.4376 5.25004C53.7137 5.48421 53.9428 5.75504 54.1251 6.06254C54.8941 5.04567 55.9149 4.44151 57.1876 4.25004C58.3847 4.10604 59.5513 4.23104 60.6876 4.62504C61.5778 5.51832 61.4944 6.30999 60.4376 7.00004C59.7124 6.94979 58.9833 6.88729 58.2501 6.81254C56.9904 6.69707 56.1571 7.23874 55.7501 8.43754C55.5236 9.38191 55.3986 10.3402 55.3751 11.3125C55.1403 12.1907 54.5778 12.5033 53.6876 12.25C53.3679 12.1644 53.1387 11.9769 53.0001 11.6875C52.8714 10.6003 52.7047 9.51701 52.5001 8.43754C52.0931 7.23874 51.2597 6.69707 50.0001 6.81254C49.3838 6.81054 48.7797 6.89387 48.1876 7.06254C47.0761 6.79791 46.7219 6.13125 47.1251 5.06254C47.6854 4.564 48.3312 4.27232 49.0626 4.18754Z" fill="#2D2D2D"/>
<path opacity="0.938" fill-rule="evenodd" clip-rule="evenodd" d="M4.43745 10.312C5.93549 10.2622 7.20633 10.7622 8.24995 11.812C9.56484 10.5128 11.1273 10.0753 12.9375 10.4995C13.7407 10.7811 14.0532 11.3436 13.875 12.187C13.3813 13.0045 12.673 13.2545 11.75 12.937C10.8908 12.9289 10.2658 13.3039 9.87495 14.062C9.689 15.0706 9.48068 16.0706 9.24995 17.062C8.58329 17.562 7.91661 17.562 7.24995 17.062C6.9881 16.4273 6.8631 15.7607 6.87495 15.062C6.7787 14.2221 6.38286 13.5762 5.68745 13.1245C4.85165 13.0012 4.01831 12.9179 3.18745 12.8745C2.29818 11.9752 2.3815 11.1835 3.43745 10.4995C3.79554 10.4766 4.12888 10.4141 4.43745 10.312Z" fill="#2D2D2D"/>
<path opacity="0.919" fill-rule="evenodd" clip-rule="evenodd" d="M17.9375 46.4375C19.4797 46.4166 21.0214 46.4375 22.5625 46.5C23.2636 46.9096 23.4927 47.5138 23.25 48.3125C22.9936 48.6941 22.6394 48.9233 22.1875 49C20.7219 49.114 19.2635 49.0724 17.8125 48.875C17.1612 48.36 17.0154 47.7143 17.375 46.9375C17.5496 46.7413 17.7371 46.5745 17.9375 46.4375Z" fill="#2D2D2D"/>
<path opacity="0.919" fill-rule="evenodd" clip-rule="evenodd" d="M41.3125 46.4375C42.8547 46.4166 44.3964 46.4375 45.9375 46.5C46.6386 46.9096 46.8677 47.5138 46.625 48.3125C46.3686 48.6941 46.0144 48.9233 45.5625 49C44.0969 49.114 42.6385 49.0724 41.1875 48.875C40.5362 48.36 40.3904 47.7143 40.75 46.9375C40.9246 46.7413 41.1121 46.5745 41.3125 46.4375Z" fill="#2D2D2D"/>
</svg>
