<svg viewBox="0 0 64 64" fill="none" xmlns="http://www.w3.org/2000/svg"><path d="M31.00 2H33.02L33.14 2.05L33.96 2.26L34.69 2.55L35.36 2.90L35.86 3.25L36.39 3.66L36.83 4.05L37.12 4.28L37.50 4.60L37.83 4.87L38.21 5.19L38.53 5.45L38.91 5.77L39.20 6.01L39.58 6.33L39.99 6.65L40.43 7.03L40.75 7.30L41.14 7.62L41.46 7.88L41.96 8.29L42.34 8.62L42.98 9.14L43.36 9.47L43.68 9.73L44.07 10.05L44.18 10.14L54.23 10.17L54.96 10.23L55.46 10.34L55.99 10.55L56.49 10.81L56.87 11.11L57.16 11.37L57.37 11.58L57.66 11.96L57.95 12.45L58.19 13.01L58.33 13.63L58.36 13.89L58.39 14.59V21.83L58.42 21.98L58.68 22.18L59.18 22.59L59.56 22.91L60.21 23.44L60.59 23.76L61.23 24.29L61.58 24.61L61.85 25.02L62 25.34V56.58L61.94 56.60L61.76 57.34L61.58 57.86L61.35 58.39L61.17 58.74L60.91 59.15L60.68 59.48L60.41 59.80L60.15 60.09L59.89 60.35L59.48 60.68L59.15 60.91L58.71 61.17L58.27 61.41L57.69 61.64L57.01 61.85L56.43 61.97L56.37 62H7.65L7.27 61.91L6.45 61.70L5.92 61.50L5.31 61.20L4.84 60.91L4.49 60.65L4.16 60.38L3.52 59.74L3.14 59.24L2.79 58.68L2.55 58.22L2.38 57.81L2.20 57.28L2.02 56.52L2 56.46V25.32H2.05L2.08 25.14L2.29 24.76L2.55 24.47L2.84 24.20L3.14 23.97L3.52 23.65L3.81 23.41L4.22 23.06L4.51 22.83L4.90 22.50L5.19 22.27L5.54 21.98H5.60V14.18L5.66 13.60L5.77 13.10L5.95 12.63L6.24 12.07L6.51 11.72L6.77 11.43L7.06 11.14L7.50 10.81L8.03 10.52L8.50 10.34L9.00 10.23L9.73 10.17L19.81 10.14L20.19 9.82L20.51 9.55L20.89 9.23L21.21 8.97L21.59 8.65L21.92 8.38L22.41 7.97L22.83 7.62L23.12 7.39L23.50 7.06L23.82 6.80L24.20 6.48L24.52 6.21L24.91 5.89L25.87 5.10L26.25 4.78L26.58 4.51L26.96 4.19L27.28 3.93L27.66 3.61L28.16 3.23L28.45 3.02L28.83 2.79L29.62 2.41L30.24 2.20L30.97 2.02L31.00 2ZM31.88 5.51L31.26 5.60L30.82 5.75L30.35 6.01L30.03 6.27L29.56 6.65L29.15 7.00L28.86 7.24L28.48 7.56L28.16 7.83L27.66 8.24L27.28 8.56L26.96 8.82L26.58 9.14L26.25 9.41L25.75 9.82L25.34 10.14V10.17L30.97 10.20H33.46L38.62 10.17V10.11L38.38 9.93L37.97 9.58L37.65 9.32L37.27 9.00L36.95 8.73L36.57 8.41L36.27 8.18L35.89 7.85L35.60 7.62L35.19 7.27L34.78 6.95L34.49 6.68L34.08 6.36L33.64 6.01L33.28 5.80L32.82 5.63L32.41 5.54L31.88 5.51ZM9.76 13.71L9.47 13.77L9.26 13.95L9.17 14.12L9.14 15.56V27.95L9.44 28.22L9.76 28.48L10.14 28.80L10.46 29.07L10.96 29.48L11.34 29.80L11.75 30.12L12.01 30.35L12.34 30.62L12.72 30.94L13.04 31.20L13.42 31.53L13.71 31.76L14.09 32.08L14.74 32.61L15.12 32.93L15.44 33.20L15.82 33.52L16.12 33.75L16.50 34.08L16.82 34.34L17.32 34.75L17.70 35.07L18.02 35.33L18.40 35.66L18.72 35.92L19.22 36.33L19.60 36.65L19.90 36.89L20.28 37.21L20.60 37.47L20.98 37.80L21.62 38.32L22.00 38.65L22.33 38.91L22.83 39.32L23.21 39.64L23.53 39.91L23.91 40.23L24.23 40.49L24.61 40.81L24.91 41.05L25.29 41.37L25.61 41.63L26.11 42.04L26.49 42.37L26.81 42.63L27.19 42.95L27.48 43.19L27.86 43.51L28.19 43.77L28.57 44.09L28.98 44.42L29.24 44.65L29.56 44.91L29.94 45.24L30.33 45.53L30.74 45.76L31.09 45.91L31.64 46.03H32.35L32.87 45.91L33.31 45.74L33.78 45.44L34.54 44.80L34.84 44.56L35.22 44.24L35.86 43.71L36.24 43.39L36.89 42.86L37.27 42.54L37.59 42.28L37.97 41.96L38.26 41.72L38.67 41.37L38.97 41.14L39.35 40.81L39.67 40.55L40.05 40.23L40.34 39.99L40.73 39.67L41.05 39.41L41.43 39.08L41.72 38.85L42.10 38.53L42.42 38.26L42.81 37.94L43.10 37.71L43.48 37.39L43.80 37.12L44.18 36.80L44.48 36.57L44.89 36.21L45.18 35.98L45.56 35.66L45.85 35.42L46.23 35.10L46.56 34.84L46.94 34.51L47.58 33.99L47.96 33.66L48.61 33.14L48.99 32.82L49.31 32.55L49.69 32.23L50.01 31.97L50.39 31.64L50.69 31.41L51.07 31.09L51.36 30.85L51.74 30.53L52.06 30.27L52.44 29.94L52.77 29.68L53.15 29.36L53.44 29.12L53.82 28.80L54.11 28.57L54.5 28.25L54.79 28.01L54.82 27.98V14.15L54.70 13.92L54.52 13.77L54.20 13.71H9.76ZM5.54 29.56L5.51 30.44V55.05L5.54 55.87L5.63 56.40L5.66 56.49L5.80 56.46L6.24 56.16L7.06 55.61L7.53 55.29L8.09 54.91L8.76 54.44L9.11 54.20L9.67 53.82L10.34 53.35L10.70 53.12L11.37 52.65L12.19 52.09L12.86 51.62L13.22 51.39L14.24 50.69L14.80 50.31L15.47 49.84L16.67 49.02L18.90 47.49L19.54 47.05L20.22 46.58L20.57 46.35L21.04 46.03L21.71 45.56L22.41 45.09L22.91 44.74L23.38 44.42L23.35 44.33L23.03 44.07L22.62 43.71L22.33 43.48L21.92 43.13L21.62 42.89L21.24 42.57L20.83 42.25L20.57 42.01L20.25 41.75L19.75 41.34L19.37 41.02L19.08 40.78L18.66 40.43L18.37 40.20L17.96 39.85L17.55 39.52L17.26 39.26L16.85 38.94L16.44 38.59L16.12 38.32L15.74 38.00L15.33 37.68L15.06 37.44L14.74 37.18L14.36 36.86L14.04 36.59L13.57 36.21L13.16 35.86L12.86 35.63L12.45 35.28L12.04 34.95L11.75 34.69L11.34 34.37L10.90 33.99L10.61 33.75L10.23 33.43L9.91 33.17L9.52 32.84L9.23 32.61L8.82 32.26L8.53 32.02L8.03 31.61L7.65 31.29L7.33 31.03L6.95 30.71L6.65 30.47L6.24 30.12L5.83 29.80L5.57 29.56H5.54ZM58.42 29.56L58.10 29.86L57.81 30.09L57.48 30.35L57.07 30.71L56.75 30.97L56.37 31.29L55.96 31.61L55.67 31.88L55.37 32.11L54.99 32.43L54.67 32.70L54.29 33.02L53.88 33.34L53.59 33.61L53.29 33.84L52.97 34.10L52.56 34.46L52.27 34.69L51.89 35.01L51.59 35.25L51.18 35.60L50.89 35.83L50.51 36.16L50.19 36.42L49.69 36.83L49.31 37.15L48.99 37.41L48.61 37.74L48.31 37.97L47.90 38.32L47.61 38.56L47.23 38.88L46.82 39.20L46.53 39.47L46.12 39.79L45.82 40.05L45.41 40.37L45.00 40.73L44.68 40.99L44.30 41.31L43.89 41.63L43.45 42.01L42.81 42.54L42.42 42.86L42.10 43.13L41.72 43.45L41.40 43.71L41.02 44.04L40.64 44.33L40.58 44.39L41.11 44.77L41.66 45.15L42.34 45.62L42.69 45.85L42.98 46.06L43.68 46.53L44.01 46.76L44.74 47.26L45.21 47.58L45.85 48.02L47.35 49.05L47.82 49.37L48.46 49.81L49.57 50.57L51.07 51.59L51.54 51.92L52.18 52.36L53.21 53.06L54.70 54.08L55.17 54.41L55.90 54.91L57.40 55.93L58.13 56.43L58.22 56.49H58.30L58.39 56.19L58.45 55.78V29.56H58.42ZM37.74 46.76L37.68 46.79V46.85L37.53 46.91L37.09 47.29L36.77 47.55L36.39 47.87L35.95 48.23L35.33 48.64L34.75 48.96L34.08 49.22L33.43 49.40L32.79 49.51L32.46 49.54H31.44L30.76 49.46L30.18 49.31L29.59 49.10L29.12 48.90L28.60 48.61L28.10 48.25L27.69 47.93L27.28 47.58L26.96 47.32L26.58 47L26.31 46.79H26.16L25.75 47.08L25.32 47.38L24.76 47.76L24.11 48.20L23.65 48.52L23.09 48.90L22.41 49.37L21.68 49.87L21.21 50.19L20.66 50.57L20.01 51.01L19.34 51.48L18.99 51.71L18.31 52.18L17.87 52.47L17.41 52.80L15.91 53.82L14.89 54.52L14.18 54.99L13.86 55.23L13.30 55.61L12.40 56.22L12.01 56.49L11.46 56.87L10.78 57.34L10.23 57.72L9.32 58.33L9.17 58.45H54.79L54.67 58.33L54.41 58.16L53.56 57.57L53.00 57.19L52.53 56.87L51.89 56.43L51.33 56.05L50.86 55.73L50.19 55.26L49.84 55.02L49.16 54.55L48.81 54.32L48.14 53.85L47.79 53.62L47.11 53.15L46.76 52.91L45.65 52.15L44.15 51.13L42.57 50.04L42.10 49.72L41.46 49.28L40.43 48.58L39.41 47.87L38.73 47.41L38.38 47.17L37.91 46.85L37.80 46.76H37.74Z" fill="#2D2D2D"/><path d="M19.10 26.58H44.86L45.30 26.63L45.65 26.78L45.94 26.99L46.17 27.19L46.44 27.60L46.58 28.04L46.61 28.22V28.48L46.50 28.98L46.29 29.36L46.06 29.65L45.74 29.89L45.50 30.00L45.21 30.09L44.97 30.12H18.93L18.55 30.03L18.20 29.86L17.87 29.59L17.64 29.27L17.46 28.92L17.38 28.54V28.19L17.49 27.72L17.70 27.34L18.02 26.99L18.34 26.78L18.69 26.63L19.10 26.58Z" fill="#2D2D2D"/><path d="M19.10 19.54H35.80L36.27 19.60L36.62 19.75L36.92 19.95L37.15 20.16L37.41 20.57L37.56 21.01L37.59 21.18V21.45L37.47 21.95L37.27 22.33L37.03 22.62L36.71 22.85L36.39 23.00L35.98 23.09H18.93L18.55 23.00L18.20 22.83L17.90 22.56L17.67 22.30L17.46 21.89L17.38 21.51V21.16L17.49 20.69L17.70 20.31L18.02 19.95L18.34 19.75L18.69 19.60L19.10 19.54Z" fill="#2D2D2D"/></svg>
