<svg viewBox="0 0 64 64" fill="none" xmlns="http://www.w3.org/2000/svg"><g clip-path="url(#clip0_4576_254)"><path opacity="0.94" fill-rule="evenodd" clip-rule="evenodd" d="M4.06 -0.06C22.64 -0.06 41.22 -0.06 59.81 -0.06C61.89 0.60 63.27 1.97 63.93 4.06C63.93 16.93 63.93 29.81 63.93 42.68C63.26 45.09 61.68 46.48 59.18 46.87C58.18 46.95 57.18 46.95 56.18 46.87C55.39 46.55 55.16 45.98 55.5 45.18C55.65 44.99 55.83 44.84 56.06 44.75C57.06 44.70 58.06 44.66 59.06 44.62C60.38 44.38 61.24 43.61 61.62 42.31C61.68 33.18 61.70 24.06 61.68 14.93C41.85 14.93 22.02 14.93 2.18 14.93C2.16 24.06 2.18 33.18 2.25 42.31C2.63 43.61 3.48 44.38 4.81 44.62C5.81 44.66 6.81 44.70 7.81 44.75C8.49 45.14 8.68 45.70 8.37 46.43C8.21 46.68 7.98 46.83 7.68 46.87C5.75 47.17 3.91 46.88 2.18 46C1.07 45.13 0.32 44.02 -0.06 42.68C-0.06 29.81 -0.06 16.93 -0.06 4.06C0.60 1.97 1.97 0.60 4.06 -0.06ZM4.56 2.18C22.81 2.16 41.06 2.18 59.31 2.25C60.5 2.60 61.27 3.37 61.62 4.56C61.68 7.27 61.70 9.97 61.68 12.68C41.85 12.68 22.02 12.68 2.18 12.68C2.16 9.97 2.18 7.27 2.25 4.56C2.62 3.37 3.39 2.58 4.56 2.18ZM7.06 6.43C8.14 6.41 8.53 6.91 8.25 7.93C7.62 8.58 7.04 8.54 6.5 7.81C6.34 7.20 6.53 6.74 7.06 6.43ZM15.56 6.43C16.65 6.41 17.04 6.91 16.75 7.93C16.20 8.60 15.66 8.60 15.12 7.93C14.80 7.29 14.95 6.79 15.56 6.43ZM24.06 6.43C25.08 6.35 25.51 6.81 25.37 7.81C24.55 8.67 23.90 8.54 23.43 7.43C23.52 7.01 23.73 6.68 24.06 6.43ZM19.06 25.56C27.77 25.50 36.48 25.56 45.18 25.75C45.37 25.85 45.52 26 45.62 26.18C45.70 29.31 45.70 32.43 45.62 35.56C45.42 35.85 45.14 36.03 44.81 36.12C36.09 36.24 27.38 36.20 18.68 36C18.54 35.85 18.39 35.70 18.25 35.56C18.16 32.43 18.16 29.31 18.25 26.18C18.45 25.87 18.72 25.66 19.06 25.56Z" fill="#2D2D2D"/><path opacity="0.93" fill-rule="evenodd" clip-rule="evenodd" d="M6.56 4.18C8.94 3.96 10.31 5.02 10.68 7.37C10.49 9.39 9.39 10.50 7.37 10.68C4.81 10.23 3.81 8.73 4.37 6.18C4.81 5.18 5.54 4.51 6.56 4.18ZM7.06 6.43C6.53 6.74 6.34 7.20 6.49 7.81C7.04 8.54 7.62 8.58 8.24 7.93C8.53 6.91 8.14 6.41 7.06 6.43Z" fill="#2D2D2D"/><path opacity="0.93" fill-rule="evenodd" clip-rule="evenodd" d="M15.06 4.18C17.93 3.99 19.28 5.32 19.12 8.18C18.54 9.98 17.31 10.79 15.43 10.62C13.37 10.11 12.48 8.80 12.75 6.68C13.07 5.42 13.84 4.59 15.06 4.18ZM15.56 6.43C14.95 6.79 14.80 7.29 15.12 7.93C15.66 8.60 16.20 8.60 16.75 7.93C17.04 6.91 16.65 6.41 15.56 6.43Z" fill="#2D2D2D"/><path opacity="0.93" fill-rule="evenodd" clip-rule="evenodd" d="M23.68 4.18C26.95 4.18 28.18 5.77 27.37 8.93C26.05 10.76 24.40 11.11 22.43 10C20.73 8.20 20.77 6.45 22.56 4.75C22.91 4.49 23.29 4.30 23.68 4.18ZM24.06 6.43C23.73 6.68 23.52 7.01 23.43 7.43C23.90 8.54 24.55 8.67 25.37 7.81C25.51 6.81 25.08 6.35 24.06 6.43Z" fill="#2D2D2D"/><path opacity="0.93" fill-rule="evenodd" clip-rule="evenodd" d="M34.68 6.31C38.56 6.29 42.43 6.31 46.31 6.37C46.93 6.81 47.07 7.37 46.75 8.06C46.58 8.31 46.35 8.45 46.06 8.5C42.35 8.58 38.64 8.58 34.93 8.5C34.05 8.16 33.82 7.56 34.25 6.68C34.39 6.54 34.53 6.42 34.68 6.31Z" fill="#2D2D2D"/><path opacity="0.93" fill-rule="evenodd" clip-rule="evenodd" d="M49.56 6.31C52.39 6.29 55.22 6.31 58.06 6.37C58.97 7.27 58.84 7.98 57.68 8.5C55.06 8.58 52.43 8.58 49.81 8.5C48.97 8.12 48.76 7.52 49.18 6.68C49.34 6.58 49.47 6.46 49.56 6.31Z" fill="#2D2D2D"/><path opacity="0.94" fill-rule="evenodd" clip-rule="evenodd" d="M57.31 63.93C53.18 63.93 49.06 63.93 44.93 63.93C43.71 63.53 42.94 62.69 42.62 61.43C42.50 57.97 42.54 54.51 42.75 51.06C43.10 50.12 43.75 49.47 44.68 49.12C46.47 48.94 48.26 48.88 50.06 48.93C50.06 47.56 50.06 46.18 50.06 44.81C44.39 44.81 38.72 44.81 33.06 44.81C33.06 46.18 33.06 47.56 33.06 48.93C34.81 48.88 36.56 48.94 38.31 49.12C39.59 49.57 40.32 50.46 40.5 51.81C40.58 54.89 40.58 57.97 40.5 61.06C40.25 62.46 39.48 63.42 38.18 63.93C34.02 63.93 29.85 63.93 25.68 63.93C24.38 63.42 23.61 62.46 23.37 61.06C23.29 57.97 23.29 54.89 23.37 51.81C23.55 50.46 24.28 49.57 25.56 49.12C27.30 48.94 29.05 48.88 30.81 48.93C30.81 47.56 30.81 46.18 30.81 44.81C25.14 44.81 19.47 44.81 13.81 44.81C13.81 46.18 13.81 47.56 13.81 48.93C15.61 48.88 17.40 48.94 19.18 49.12C20.12 49.47 20.77 50.12 21.12 51.06C21.33 54.51 21.37 57.97 21.25 61.43C20.92 62.69 20.15 63.53 18.93 63.93C14.81 63.93 10.68 63.93 6.56 63.93C5.40 63.54 4.63 62.75 4.24 61.56C4.12 58.01 4.17 54.47 4.37 50.93C4.73 50.03 5.38 49.42 6.31 49.12C8.05 48.94 9.80 48.88 11.56 48.93C11.51 47.26 11.57 45.59 11.75 43.93C12.03 43.28 12.51 42.84 13.18 42.62C19.06 42.56 24.93 42.54 30.81 42.56C30.81 41.18 30.81 39.81 30.81 38.43C26.81 38.45 22.81 38.43 18.81 38.37C17.42 38.15 16.48 37.37 16 36.06C15.91 32.60 15.91 29.14 16 25.68C16.47 24.37 17.41 23.60 18.81 23.37C27.56 23.29 36.31 23.29 45.06 23.37C46.45 23.60 47.39 24.37 47.87 25.68C47.95 29.14 47.95 32.60 47.87 36.06C47.39 37.37 46.45 38.15 45.06 38.37C41.06 38.43 37.06 38.45 33.06 38.43C33.06 39.81 33.06 41.18 33.06 42.56C38.93 42.54 44.81 42.56 50.68 42.62C51.36 42.84 51.84 43.28 52.12 43.93C52.30 45.59 52.36 47.26 52.31 48.93C54.06 48.88 55.81 48.94 57.56 49.12C58.49 49.42 59.13 50.03 59.5 50.93C59.70 54.47 59.74 58.01 59.62 61.56C59.24 62.75 58.47 63.54 57.31 63.93ZM19.06 25.56C18.72 25.66 18.45 25.87 18.25 26.18C18.16 29.31 18.16 32.43 18.25 35.56C18.39 35.70 18.54 35.85 18.68 36C27.38 36.20 36.09 36.24 44.81 36.12C45.14 36.03 45.42 35.85 45.62 35.56C45.70 32.43 45.70 29.31 45.62 26.18C45.52 26 45.37 25.85 45.18 25.75C36.48 25.56 27.77 25.50 19.06 25.56ZM7.18 51.18C10.89 51.16 14.60 51.18 18.31 51.25C18.61 51.34 18.84 51.53 19 51.81C19.12 54.99 19.08 58.15 18.87 61.31C18.76 61.46 18.61 61.56 18.43 61.62C14.60 61.70 10.77 61.70 6.93 61.62C6.79 61.47 6.64 61.33 6.49 61.18C6.41 58.06 6.41 54.93 6.49 51.81C6.67 51.53 6.90 51.32 7.18 51.18ZM26.43 51.18C30.23 51.12 34.02 51.19 37.81 51.37C38.06 51.53 38.20 51.76 38.25 52.06C38.33 54.97 38.33 57.89 38.25 60.81C38.20 61.18 38.01 61.45 37.68 61.62C33.85 61.70 30.02 61.70 26.18 61.62C25.86 61.45 25.67 61.18 25.62 60.81C25.54 57.89 25.54 54.97 25.62 52.06C25.75 51.62 26.02 51.33 26.43 51.18ZM45.56 51.18C49.27 51.16 52.97 51.18 56.68 51.25C56.99 51.34 57.22 51.53 57.37 51.81C57.45 54.93 57.45 58.06 57.37 61.18C57.22 61.33 57.08 61.47 56.93 61.62C53.01 61.74 49.09 61.70 45.18 61.5C45.03 61.38 44.93 61.24 44.87 61.06C44.79 57.97 44.79 54.89 44.87 51.81C45.05 51.53 45.27 51.32 45.56 51.18Z" fill="#2D2D2D"/><path opacity="0.94" d="M20.70 28.40C20.85 28.21 21.03 28.10 21.23 28.06C26.60 28.04 31.97 28.06 37.34 28.12C37.64 28.23 37.77 28.36 37.82 28.47C37.87 28.57 37.9 28.75 37.81 29.04L37.67 29.17L37.60 29.25C32.05 29.33 26.51 29.33 20.97 29.25C20.82 29.13 20.74 29.02 20.70 28.91C20.66 28.79 20.65 28.63 20.70 28.40Z" fill="#848484" stroke="#848484"/><path opacity="0.93" d="M20.71 32.75C20.77 32.64 20.84 32.53 20.92 32.43C23.64 32.41 26.36 32.43 29.08 32.49C29.26 32.70 29.31 32.87 29.31 33C29.31 33.13 29.25 33.31 29.04 33.55L28.94 33.57L28.74 33.62C26.24 33.70 23.74 33.70 21.24 33.62C20.90 33.55 20.77 33.43 20.72 33.34C20.66 33.25 20.62 33.08 20.71 32.75Z" fill="#848484" stroke="#848484"/><path opacity="0.93" fill-rule="evenodd" clip-rule="evenodd" d="M9.31 53.18C11.60 53.16 13.89 53.18 16.18 53.25C16.89 53.47 17.16 53.95 17.00 54.68C16.90 54.99 16.71 55.22 16.43 55.37C13.97 55.45 11.52 55.45 9.06 55.37C8.48 55.01 8.29 54.49 8.50 53.81C8.72 53.52 8.99 53.31 9.31 53.18Z" fill="#2D2D2D"/><path opacity="0.93" fill-rule="evenodd" clip-rule="evenodd" d="M28.43 53.18C30.77 53.16 33.10 53.18 35.43 53.25C36.18 53.60 36.40 54.16 36.12 54.93C35.97 55.13 35.78 55.27 35.56 55.37C33.14 55.45 30.72 55.45 28.31 55.37C27.58 54.91 27.44 54.30 27.87 53.56C28.08 53.45 28.26 53.32 28.43 53.18Z" fill="#2D2D2D"/><path opacity="0.93" fill-rule="evenodd" clip-rule="evenodd" d="M47.68 53.18C49.97 53.16 52.27 53.18 54.56 53.25C55.37 53.48 55.64 54.00 55.37 54.81C55.27 55.08 55.08 55.27 54.81 55.37C52.35 55.45 49.89 55.45 47.43 55.37C46.54 54.51 46.63 53.79 47.68 53.18Z" fill="#2D2D2D"/><path opacity="0.91" fill-rule="evenodd" clip-rule="evenodd" d="M9.43 57.43C10.23 57.41 11.02 57.43 11.81 57.5C12.73 57.82 12.98 58.42 12.56 59.31C12.43 59.41 12.31 59.52 12.18 59.62C11.05 59.74 9.92 59.70 8.81 59.5C8.17 58.53 8.38 57.84 9.43 57.43Z" fill="#2D2D2D"/><path opacity="0.91" fill-rule="evenodd" clip-rule="evenodd" d="M28.56 57.43C29.53 57.38 30.48 57.45 31.43 57.62C31.91 58.03 32.06 58.55 31.87 59.18C31.72 59.38 31.53 59.52 31.31 59.62C30.27 59.70 29.22 59.70 28.18 59.62C27.32 58.71 27.45 57.99 28.56 57.43Z" fill="#2D2D2D"/><path opacity="0.91" fill-rule="evenodd" clip-rule="evenodd" d="M47.81 57.43C48.78 57.39 49.73 57.45 50.68 57.62C51.38 58.35 51.34 59.01 50.56 59.62C49.52 59.70 48.47 59.70 47.43 59.62C46.72 59.07 46.64 58.45 47.18 57.75C47.41 57.65 47.62 57.55 47.81 57.43Z" fill="#2D2D2D"/></g><defs><clipPath id="clip0_4576_254"><rect width="64" height="64" fill="white"/></clipPath></defs></svg>
